<mxfile host="app.diagrams.net" modified="2024-04-22T20:20:13.626Z" agent="Mozilla/5.0 (Macintosh; Intel Mac OS X 10.15; rv:124.0) Gecko/20100101 Firefox/124.0" etag="likxqtZdUy6Pr2adsbuL" version="24.2.7" type="github">
  <diagram name="Page-1" id="s-v8wvNNqmuhA454BTQs">
    <mxGraphModel dx="1242" dy="793" grid="1" gridSize="10" guides="1" tooltips="1" connect="1" arrows="1" fold="1" page="1" pageScale="1" pageWidth="850" pageHeight="1100" math="0" shadow="0">
      <root>
        <mxCell id="0" />
        <mxCell id="1" parent="0" />
        <mxCell id="3DfFJ159WeKJCa6QbeZ5-27" value="" style="verticalLabelPosition=bottom;html=1;verticalAlign=top;align=center;shape=mxgraph.floorplan.chair;direction=west;" vertex="1" parent="1">
          <mxGeometry x="468.12" y="260" width="45.75" height="52" as="geometry" />
        </mxCell>
        <mxCell id="3DfFJ159WeKJCa6QbeZ5-26" value="" style="verticalLabelPosition=bottom;html=1;verticalAlign=top;align=center;shape=mxgraph.floorplan.chair;direction=west;" vertex="1" parent="1">
          <mxGeometry x="360" y="260" width="45.75" height="52" as="geometry" />
        </mxCell>
        <mxCell id="3DfFJ159WeKJCa6QbeZ5-25" value="" style="verticalLabelPosition=bottom;html=1;verticalAlign=top;align=center;shape=mxgraph.floorplan.chair;direction=west;" vertex="1" parent="1">
          <mxGeometry x="240.13" y="260" width="45.75" height="52" as="geometry" />
        </mxCell>
        <mxCell id="3DfFJ159WeKJCa6QbeZ5-1" value="" style="verticalLabelPosition=bottom;html=1;verticalAlign=top;align=center;shape=mxgraph.floorplan.chair;" vertex="1" parent="1">
          <mxGeometry x="240.13" y="130" width="45.75" height="52" as="geometry" />
        </mxCell>
        <mxCell id="3DfFJ159WeKJCa6QbeZ5-3" value="" style="verticalLabelPosition=bottom;html=1;verticalAlign=top;align=center;shape=mxgraph.floorplan.wall;fillColor=strokeColor;" vertex="1" parent="1">
          <mxGeometry x="160" y="80" width="590" height="10" as="geometry" />
        </mxCell>
        <mxCell id="3DfFJ159WeKJCa6QbeZ5-4" value="" style="verticalLabelPosition=bottom;html=1;verticalAlign=top;align=center;shape=mxgraph.floorplan.wall;fillColor=strokeColor;direction=south;" vertex="1" parent="1">
          <mxGeometry x="160" y="90" width="10" height="530" as="geometry" />
        </mxCell>
        <mxCell id="3DfFJ159WeKJCa6QbeZ5-5" value="" style="verticalLabelPosition=bottom;html=1;verticalAlign=top;align=center;shape=mxgraph.floorplan.table;" vertex="1" parent="1">
          <mxGeometry x="206" y="160" width="114" height="60" as="geometry" />
        </mxCell>
        <mxCell id="3DfFJ159WeKJCa6QbeZ5-6" value="" style="verticalLabelPosition=bottom;html=1;verticalAlign=top;align=center;shape=mxgraph.floorplan.wall;fillColor=strokeColor;" vertex="1" parent="1">
          <mxGeometry x="160" y="620" width="590" height="10" as="geometry" />
        </mxCell>
        <mxCell id="3DfFJ159WeKJCa6QbeZ5-7" value="" style="verticalLabelPosition=bottom;html=1;verticalAlign=top;align=center;shape=mxgraph.floorplan.wall;fillColor=strokeColor;direction=south;" vertex="1" parent="1">
          <mxGeometry x="740" y="90" width="10" height="540" as="geometry" />
        </mxCell>
        <mxCell id="3DfFJ159WeKJCa6QbeZ5-8" value="" style="verticalLabelPosition=bottom;html=1;verticalAlign=top;align=center;shape=mxgraph.floorplan.doorRight;aspect=fixed;direction=south;" vertex="1" parent="1">
          <mxGeometry x="665" y="510" width="85" height="80" as="geometry" />
        </mxCell>
        <mxCell id="3DfFJ159WeKJCa6QbeZ5-9" value="" style="verticalLabelPosition=bottom;html=1;verticalAlign=top;align=center;shape=mxgraph.floorplan.chair;" vertex="1" parent="1">
          <mxGeometry x="354.12" y="130" width="45.75" height="52" as="geometry" />
        </mxCell>
        <mxCell id="3DfFJ159WeKJCa6QbeZ5-10" value="" style="verticalLabelPosition=bottom;html=1;verticalAlign=top;align=center;shape=mxgraph.floorplan.table;" vertex="1" parent="1">
          <mxGeometry x="320" y="160" width="114" height="60" as="geometry" />
        </mxCell>
        <mxCell id="3DfFJ159WeKJCa6QbeZ5-11" value="" style="verticalLabelPosition=bottom;html=1;verticalAlign=top;align=center;shape=mxgraph.floorplan.chair;" vertex="1" parent="1">
          <mxGeometry x="468.12" y="130" width="45.75" height="52" as="geometry" />
        </mxCell>
        <mxCell id="3DfFJ159WeKJCa6QbeZ5-12" value="" style="verticalLabelPosition=bottom;html=1;verticalAlign=top;align=center;shape=mxgraph.floorplan.table;" vertex="1" parent="1">
          <mxGeometry x="434" y="160" width="114" height="60" as="geometry" />
        </mxCell>
        <mxCell id="3DfFJ159WeKJCa6QbeZ5-16" value="" style="verticalLabelPosition=bottom;html=1;verticalAlign=top;align=center;shape=mxgraph.floorplan.chair;" vertex="1" parent="1">
          <mxGeometry x="240.13" y="380" width="45.75" height="52" as="geometry" />
        </mxCell>
        <mxCell id="3DfFJ159WeKJCa6QbeZ5-17" value="" style="verticalLabelPosition=bottom;html=1;verticalAlign=top;align=center;shape=mxgraph.floorplan.table;" vertex="1" parent="1">
          <mxGeometry x="206" y="410" width="114" height="60" as="geometry" />
        </mxCell>
        <mxCell id="3DfFJ159WeKJCa6QbeZ5-18" value="" style="verticalLabelPosition=bottom;html=1;verticalAlign=top;align=center;shape=mxgraph.floorplan.chair;" vertex="1" parent="1">
          <mxGeometry x="354.12" y="380" width="45.75" height="52" as="geometry" />
        </mxCell>
        <mxCell id="3DfFJ159WeKJCa6QbeZ5-19" value="" style="verticalLabelPosition=bottom;html=1;verticalAlign=top;align=center;shape=mxgraph.floorplan.table;" vertex="1" parent="1">
          <mxGeometry x="320" y="410" width="114" height="60" as="geometry" />
        </mxCell>
        <mxCell id="3DfFJ159WeKJCa6QbeZ5-20" value="" style="verticalLabelPosition=bottom;html=1;verticalAlign=top;align=center;shape=mxgraph.floorplan.chair;" vertex="1" parent="1">
          <mxGeometry x="468.12" y="380" width="45.75" height="52" as="geometry" />
        </mxCell>
        <mxCell id="3DfFJ159WeKJCa6QbeZ5-21" value="" style="verticalLabelPosition=bottom;html=1;verticalAlign=top;align=center;shape=mxgraph.floorplan.table;" vertex="1" parent="1">
          <mxGeometry x="434" y="410" width="114" height="60" as="geometry" />
        </mxCell>
        <mxCell id="3DfFJ159WeKJCa6QbeZ5-22" value="" style="verticalLabelPosition=bottom;html=1;verticalAlign=top;align=center;shape=mxgraph.floorplan.table;" vertex="1" parent="1">
          <mxGeometry x="205.99" y="220" width="114" height="60" as="geometry" />
        </mxCell>
        <mxCell id="3DfFJ159WeKJCa6QbeZ5-23" value="" style="verticalLabelPosition=bottom;html=1;verticalAlign=top;align=center;shape=mxgraph.floorplan.table;" vertex="1" parent="1">
          <mxGeometry x="319.99" y="220" width="114" height="60" as="geometry" />
        </mxCell>
        <mxCell id="3DfFJ159WeKJCa6QbeZ5-24" value="" style="verticalLabelPosition=bottom;html=1;verticalAlign=top;align=center;shape=mxgraph.floorplan.table;" vertex="1" parent="1">
          <mxGeometry x="433.99" y="220" width="114" height="60" as="geometry" />
        </mxCell>
        <mxCell id="3DfFJ159WeKJCa6QbeZ5-28" value="" style="verticalLabelPosition=bottom;html=1;verticalAlign=top;align=center;shape=mxgraph.floorplan.chair;direction=west;" vertex="1" parent="1">
          <mxGeometry x="468.12" y="510" width="45.75" height="52" as="geometry" />
        </mxCell>
        <mxCell id="3DfFJ159WeKJCa6QbeZ5-29" value="" style="verticalLabelPosition=bottom;html=1;verticalAlign=top;align=center;shape=mxgraph.floorplan.chair;direction=west;" vertex="1" parent="1">
          <mxGeometry x="360" y="510" width="45.75" height="52" as="geometry" />
        </mxCell>
        <mxCell id="3DfFJ159WeKJCa6QbeZ5-30" value="" style="verticalLabelPosition=bottom;html=1;verticalAlign=top;align=center;shape=mxgraph.floorplan.chair;direction=west;" vertex="1" parent="1">
          <mxGeometry x="240.13" y="510" width="45.75" height="52" as="geometry" />
        </mxCell>
        <mxCell id="3DfFJ159WeKJCa6QbeZ5-31" value="" style="verticalLabelPosition=bottom;html=1;verticalAlign=top;align=center;shape=mxgraph.floorplan.table;" vertex="1" parent="1">
          <mxGeometry x="205.99" y="470" width="114" height="60" as="geometry" />
        </mxCell>
        <mxCell id="3DfFJ159WeKJCa6QbeZ5-32" value="" style="verticalLabelPosition=bottom;html=1;verticalAlign=top;align=center;shape=mxgraph.floorplan.table;" vertex="1" parent="1">
          <mxGeometry x="319.99" y="470" width="114" height="60" as="geometry" />
        </mxCell>
        <mxCell id="3DfFJ159WeKJCa6QbeZ5-33" value="" style="verticalLabelPosition=bottom;html=1;verticalAlign=top;align=center;shape=mxgraph.floorplan.table;" vertex="1" parent="1">
          <mxGeometry x="433.99" y="470" width="114" height="60" as="geometry" />
        </mxCell>
        <mxCell id="3DfFJ159WeKJCa6QbeZ5-34" value="1" style="text;html=1;align=center;verticalAlign=middle;resizable=0;points=[];autosize=1;strokeColor=none;fillColor=none;fontSize=20;" vertex="1" parent="1">
          <mxGeometry x="476" y="480" width="30" height="40" as="geometry" />
        </mxCell>
        <mxCell id="3DfFJ159WeKJCa6QbeZ5-35" value="6" style="text;html=1;align=center;verticalAlign=middle;resizable=0;points=[];autosize=1;strokeColor=none;fillColor=none;fontSize=20;" vertex="1" parent="1">
          <mxGeometry x="248.01" y="420" width="30" height="40" as="geometry" />
        </mxCell>
        <mxCell id="3DfFJ159WeKJCa6QbeZ5-36" value="2" style="text;html=1;align=center;verticalAlign=middle;resizable=0;points=[];autosize=1;strokeColor=none;fillColor=none;fontSize=20;" vertex="1" parent="1">
          <mxGeometry x="367.88" y="480" width="30" height="40" as="geometry" />
        </mxCell>
        <mxCell id="3DfFJ159WeKJCa6QbeZ5-37" value="3" style="text;html=1;align=center;verticalAlign=middle;resizable=0;points=[];autosize=1;strokeColor=none;fillColor=none;fontSize=20;" vertex="1" parent="1">
          <mxGeometry x="248.01" y="480" width="30" height="40" as="geometry" />
        </mxCell>
        <mxCell id="3DfFJ159WeKJCa6QbeZ5-38" value="7" style="text;html=1;align=center;verticalAlign=middle;resizable=0;points=[];autosize=1;strokeColor=none;fillColor=none;fontSize=20;" vertex="1" parent="1">
          <mxGeometry x="476" y="230" width="30" height="40" as="geometry" />
        </mxCell>
        <mxCell id="3DfFJ159WeKJCa6QbeZ5-39" value="5" style="text;html=1;align=center;verticalAlign=middle;resizable=0;points=[];autosize=1;strokeColor=none;fillColor=none;fontSize=20;" vertex="1" parent="1">
          <mxGeometry x="362" y="420" width="30" height="40" as="geometry" />
        </mxCell>
        <mxCell id="3DfFJ159WeKJCa6QbeZ5-40" value="4" style="text;html=1;align=center;verticalAlign=middle;resizable=0;points=[];autosize=1;strokeColor=none;fillColor=none;fontSize=20;" vertex="1" parent="1">
          <mxGeometry x="476" y="420" width="30" height="40" as="geometry" />
        </mxCell>
        <mxCell id="3DfFJ159WeKJCa6QbeZ5-41" value="10" style="text;html=1;align=center;verticalAlign=middle;resizable=0;points=[];autosize=1;strokeColor=none;fillColor=none;fontSize=20;" vertex="1" parent="1">
          <mxGeometry x="466" y="170" width="50" height="40" as="geometry" />
        </mxCell>
        <mxCell id="3DfFJ159WeKJCa6QbeZ5-42" value="8" style="text;html=1;align=center;verticalAlign=middle;resizable=0;points=[];autosize=1;strokeColor=none;fillColor=none;fontSize=20;" vertex="1" parent="1">
          <mxGeometry x="362" y="230" width="30" height="40" as="geometry" />
        </mxCell>
        <mxCell id="3DfFJ159WeKJCa6QbeZ5-43" value="9" style="text;html=1;align=center;verticalAlign=middle;resizable=0;points=[];autosize=1;strokeColor=none;fillColor=none;fontSize=20;" vertex="1" parent="1">
          <mxGeometry x="247.99" y="230" width="30" height="40" as="geometry" />
        </mxCell>
        <mxCell id="3DfFJ159WeKJCa6QbeZ5-44" value="12" style="text;html=1;align=center;verticalAlign=middle;resizable=0;points=[];autosize=1;strokeColor=none;fillColor=none;fontSize=20;" vertex="1" parent="1">
          <mxGeometry x="237.99" y="170" width="50" height="40" as="geometry" />
        </mxCell>
        <mxCell id="3DfFJ159WeKJCa6QbeZ5-45" value="11" style="text;html=1;align=center;verticalAlign=middle;resizable=0;points=[];autosize=1;strokeColor=none;fillColor=none;fontSize=20;" vertex="1" parent="1">
          <mxGeometry x="357" y="170" width="40" height="40" as="geometry" />
        </mxCell>
      </root>
    </mxGraphModel>
  </diagram>
</mxfile>
